<svg width="4" height="8" viewBox="0 0 4 8" fill="none" xmlns="http://www.w3.org/2000/svg">
<g opacity="0.2" clip-path="url(#clip0_148_6879)">
<path d="M3.7999 3.59995L0.799902 0.599951C0.599902 0.399951 0.299902 0.399951 0.0999023 0.599951C-9.76548e-05 0.799951 -9.76548e-05 1.19995 0.0999023 1.39995L2.6999 3.99995L0.0999023 6.59995C-9.76548e-05 6.79995 -9.76548e-05 7.09995 0.0999023 7.29995C0.199902 7.39995 0.399902 7.49995 0.499902 7.49995C0.599902 7.49995 0.799902 7.39995 0.899902 7.39995L3.8999 4.39995C3.8999 4.29995 3.9999 4.09995 3.9999 3.99995C3.9999 3.89995 3.8999 3.69995 3.7999 3.59995Z" fill="black"/>
</g>
<defs>
<clipPath id="clip0_148_6879">
<rect width="4" height="7" fill="white" transform="translate(0 0.5)"/>
</clipPath>
</defs>
</svg>
